<svg width="41" height="40" viewBox="0 0 41 40" fill="none" xmlns="http://www.w3.org/2000/svg">
<path d="M34.6416 7.6805C31.9944 6.48051 29.1639 5.6084 26.2047 5.11182C25.8413 5.74842 25.4167 6.60467 25.124 7.28581C21.9783 6.82746 18.8615 6.82746 15.7736 7.28581C15.481 6.60467 15.0467 5.74842 14.6801 5.11182C11.7177 5.6084 8.88393 6.48371 6.23675 7.68685C0.897368 15.5042 -0.550051 23.1274 0.17366 30.6423C3.71502 33.2046 7.14702 34.7611 10.5211 35.7796C11.3542 34.6687 12.0972 33.4879 12.7373 32.2433C11.5182 31.7945 10.3506 31.2407 9.24741 30.5977C9.54009 30.3877 9.82638 30.168 10.103 29.942C16.8319 32.9913 24.143 32.9913 30.7915 29.942C31.0713 30.168 31.3575 30.3877 31.647 30.5977C30.5405 31.2439 29.3698 31.7977 28.1507 32.2465C28.7908 33.4879 29.5306 34.6719 30.3669 35.7827C33.7442 34.7642 37.1794 33.2078 40.7208 30.6423C41.5699 21.9306 39.2701 14.3774 34.6416 7.6805ZM13.654 26.0207C11.634 26.0207 9.97751 24.1936 9.97751 21.9688C9.97751 19.7439 11.5987 17.9137 13.654 17.9137C15.7093 17.9137 17.3658 19.7407 17.3304 21.9688C17.3336 24.1936 15.7093 26.0207 13.654 26.0207ZM27.2405 26.0207C25.2205 26.0207 23.564 24.1936 23.564 21.9688C23.564 19.7439 25.1851 17.9137 27.2405 17.9137C29.2958 17.9137 30.9523 19.7407 30.9169 21.9688C30.9169 24.1936 29.2958 26.0207 27.2405 26.0207Z" fill="#ECFDF5"/>
</svg>
