<svg width="144" height="32" viewBox="0 0 144 32" fill="none" xmlns="http://www.w3.org/2000/svg">
<g clip-path="url(#clip0_35_2159)">
<path d="M16 0C24.8366 0 32 7.16344 32 16C32 24.8366 24.8366 32 16 32C15.8708 32 15.7692 31.8803 15.7663 31.7511C15.7648 31.6819 15.7608 31.6011 15.756 31.5033C15.6185 28.7258 16.273 23.543 19.9009 21.2637C19.9943 21.205 20.041 21.1756 20.1026 21.15C20.1642 21.1244 20.231 21.1089 20.3644 21.0779C23.2299 20.4127 27.199 18.5516 28.1354 14.0383C28.2395 13.537 28.2914 13.2864 28.159 13.0331C28.0265 12.7798 27.7666 12.669 27.2468 12.4476C25.9042 11.8757 24.1383 11.147 22.4669 10.5071C12.6726 6.75735 7.77547 4.88248 7.71679 4.86208C7.25546 4.7017 8.02682 4.95209 7.55925 4.81094C7.49978 4.79299 23.7824 9.16129 17.2693 7.41397C16.9924 7.33966 16.7009 7.3 16.4 7.3C15.0427 7.3 13.8768 8.10698 13.37 9.26035C13.2543 9.52363 12.9876 9.7 12.7 9.7C10.8775 9.7 9.4 11.1551 9.4 12.95C9.4 13.0632 9.2973 13.1521 9.18529 13.1356C9.02691 13.1122 8.86488 13.1 8.7 13.1C6.87746 13.1 5.4 14.5775 5.4 16.4C5.4 16.6844 5.2022 16.9422 4.92925 17.0219C3.60118 17.41 2.74244 18.6792 2.5 20.15C2.25816 21.6172 0.774303 21.1515 0.43122 19.7047C0.14927 18.5156 0 17.2753 0 16C0 7.16344 7.16344 0 16 0Z" fill="#05D09B"/>
<path d="M15.5182 12.5063C15.6059 12.4991 15.6559 12.6022 15.5991 12.6695C14.7071 13.7276 13.4172 15.6892 12.2564 15.3146C10.9653 14.898 12.9612 12.7175 15.5182 12.5063Z" fill="#05D09B"/>
<path d="M26.6028 12.8985C26.7421 12.7897 26.8846 12.8503 27.1694 12.9713C27.2497 13.0054 27.3278 13.0386 27.4033 13.0709C27.597 13.1537 27.6938 13.1953 27.7438 13.2841C27.7936 13.3729 27.7794 13.4722 27.7508 13.6708C27.7043 13.9932 27.6383 14.2993 27.555 14.5897C27.4395 14.9923 27.3818 15.1938 27.2369 15.1991C27.092 15.2045 27.0169 15.0007 26.8667 14.5933C26.7247 14.2081 26.5862 13.7802 26.5248 13.3935C26.484 13.1361 26.4635 13.0074 26.6028 12.8985Z" fill="#05D09B"/>
<path d="M19.1 12.0996C19.5418 12.0996 19.9 12.4578 19.9 12.8996C19.9 13.3414 19.5418 13.6996 19.1 13.6996C18.6582 13.6996 18.3 13.3414 18.3 12.8996C18.3 12.4578 18.6582 12.0996 19.1 12.0996Z" fill="#05D09B"/>
</g>
<path d="M41.944 25.5V8.7H45.52V22.524H53.2V25.5H41.944ZM53.5769 25.5L59.8169 8.7H63.3929L69.6569 25.5H65.8649L64.5689 22.068H58.3529L57.0809 25.5H53.5769ZM59.4569 19.092H63.4889L61.4729 13.26L59.4569 19.092ZM70.8677 25.5V8.7H74.4438L79.5558 18.156L84.6438 8.7H88.1238V25.5H84.5238V14.82L80.5398 22.14H78.4038L74.4438 14.82V25.5H70.8677ZM91.0015 25.5V8.7H98.1775C100.065 8.7 101.449 9.1 102.329 9.9C103.225 10.684 103.673 11.78 103.673 13.188C103.673 14.052 103.457 14.796 103.025 15.42C102.609 16.028 102.042 16.468 101.321 16.74C102.281 16.964 103.033 17.42 103.577 18.108C104.122 18.78 104.394 19.66 104.394 20.748C104.394 21.708 104.194 22.548 103.793 23.268C103.393 23.972 102.761 24.524 101.897 24.924C101.033 25.308 99.8975 25.5 98.4895 25.5H91.0015ZM94.5775 22.764H97.8415C98.9615 22.764 99.7375 22.572 100.169 22.188C100.601 21.804 100.817 21.236 100.817 20.484C100.817 19.732 100.601 19.148 100.169 18.732C99.7535 18.3 98.9695 18.084 97.8175 18.084H94.5775V22.764ZM94.5775 15.636H97.4575C98.4335 15.636 99.1135 15.444 99.4975 15.06C99.8975 14.676 100.097 14.156 100.097 13.5C100.097 12.828 99.9055 12.316 99.5215 11.964C99.1375 11.612 98.4575 11.436 97.4815 11.436H94.5775V15.636ZM105.13 25.5V22.884L111.01 17.82C111.746 17.164 112.33 16.628 112.762 16.212C113.21 15.78 113.53 15.372 113.722 14.988C113.914 14.604 114.01 14.188 114.01 13.74C114.01 13.052 113.818 12.5 113.434 12.084C113.066 11.652 112.498 11.436 111.73 11.436C110.85 11.436 110.17 11.676 109.69 12.156C109.21 12.62 108.97 13.42 108.97 14.556H105.37C105.37 13.292 105.61 12.204 106.09 11.292C106.57 10.364 107.282 9.652 108.226 9.156C109.186 8.66 110.354 8.412 111.73 8.412C113.01 8.412 114.09 8.644 114.97 9.108C115.85 9.556 116.506 10.18 116.938 10.98C117.386 11.78 117.61 12.7 117.61 13.74C117.61 14.508 117.426 15.228 117.058 15.9C116.706 16.572 116.234 17.212 115.642 17.82C115.05 18.428 114.386 19.036 113.65 19.644L110.194 22.524H117.85V25.5H105.13ZM120.721 25.5L126.385 11.676H118.297V8.7H130.033V11.316L124.537 25.5H120.721ZM137.618 25.788C135.522 25.788 133.898 25.164 132.746 23.916C131.594 22.652 131.018 20.62 131.018 17.82V17.34C131.018 15.196 131.306 13.476 131.882 12.18C132.474 10.868 133.282 9.916 134.306 9.324C135.346 8.716 136.53 8.412 137.858 8.412C138.898 8.412 139.802 8.556 140.57 8.844C141.354 9.132 141.986 9.588 142.466 10.212C142.946 10.82 143.25 11.628 143.378 12.636H140.018C139.858 12.236 139.586 11.94 139.202 11.748C138.834 11.54 138.346 11.436 137.738 11.436C137.098 11.436 136.538 11.572 136.058 11.844C135.594 12.1 135.21 12.572 134.906 13.26C134.618 13.948 134.442 14.956 134.378 16.284C134.794 15.628 135.378 15.172 136.13 14.916C136.898 14.66 137.674 14.532 138.458 14.532C139.594 14.532 140.546 14.74 141.314 15.156C142.098 15.572 142.698 16.172 143.114 16.956C143.53 17.74 143.738 18.692 143.738 19.812V20.076C143.738 21.212 143.474 22.212 142.946 23.076C142.434 23.924 141.714 24.588 140.786 25.068C139.858 25.548 138.802 25.788 137.618 25.788ZM137.378 22.764C138.242 22.764 138.914 22.524 139.394 22.044C139.89 21.548 140.138 20.916 140.138 20.148V19.908C140.138 19.14 139.89 18.516 139.394 18.036C138.914 17.556 138.242 17.316 137.378 17.316C136.514 17.316 135.834 17.556 135.338 18.036C134.858 18.516 134.618 19.14 134.618 19.908V20.148C134.618 20.916 134.858 21.548 135.338 22.044C135.834 22.524 136.514 22.764 137.378 22.764Z" fill="#05D09B"/>
<defs>
<clipPath id="clip0_35_2159">
<rect width="32" height="32" fill="white"/>
</clipPath>
</defs>
</svg>
