<svg width="40" height="40" viewBox="0 0 40 40" fill="none" xmlns="http://www.w3.org/2000/svg">
<path d="M40 20C40 20.947 39.2235 21.7235 38.2766 21.7235C22.8031 21.7235 21.7234 22.8125 21.7234 38.2765C21.7234 39.2235 20.947 40 20 40C19.053 40 18.2766 39.2235 18.2766 38.2765C18.2766 22.8125 17.1969 21.7235 1.72343 21.7235C0.776464 21.7235 0 20.9564 0 20C0 19.0436 0.776464 18.2765 1.72343 18.2765C17.1969 18.2765 18.2766 17.1875 18.2766 1.72349C18.2766 0.776522 19.053 0 20 0C20.947 0 21.7234 0.776522 21.7234 1.72349C21.7234 17.1875 22.8031 18.2765 38.2766 18.2765C39.2235 18.2765 40 19.053 40 20Z" fill="white"/>
</svg>
