<svg width="32" height="32" viewBox="0 0 32 32" fill="none" xmlns="http://www.w3.org/2000/svg">
<g clip-path="url(#clip0_35_2160)">
<path d="M16 0C24.8366 0 32 7.16344 32 16C32 24.8366 24.8366 32 16 32C15.8708 32 15.7692 31.8803 15.7663 31.7511C15.7648 31.6819 15.7608 31.6011 15.756 31.5033C15.6185 28.7258 16.273 23.543 19.9009 21.2637C19.9943 21.205 20.041 21.1756 20.1026 21.15C20.1642 21.1244 20.231 21.1089 20.3644 21.0779C23.2299 20.4127 27.199 18.5516 28.1354 14.0383C28.2395 13.537 28.2914 13.2864 28.159 13.0331C28.0265 12.7798 27.7666 12.669 27.2468 12.4476C25.9042 11.8757 24.1383 11.147 22.4669 10.5071C12.6726 6.75735 7.77547 4.88248 7.71679 4.86208C7.25546 4.7017 8.02682 4.95209 7.55925 4.81094C7.49978 4.79299 23.7824 9.16129 17.2693 7.41397C16.9924 7.33966 16.7009 7.3 16.4 7.3C15.0427 7.3 13.8768 8.10698 13.37 9.26035C13.2543 9.52363 12.9876 9.7 12.7 9.7C10.8775 9.7 9.4 11.1551 9.4 12.95C9.4 13.0632 9.2973 13.1521 9.18529 13.1356C9.02691 13.1122 8.86488 13.1 8.7 13.1C6.87746 13.1 5.4 14.5775 5.4 16.4C5.4 16.6844 5.2022 16.9422 4.92925 17.0219C3.60118 17.41 2.74244 18.6792 2.5 20.15C2.25816 21.6172 0.774303 21.1515 0.43122 19.7047C0.14927 18.5156 0 17.2753 0 16C0 7.16344 7.16344 0 16 0Z" fill="#05D09B"/>
<path d="M15.5182 12.5063C15.6059 12.4991 15.6559 12.6022 15.5991 12.6695C14.7071 13.7276 13.4172 15.6892 12.2564 15.3146C10.9653 14.898 12.9612 12.7175 15.5182 12.5063Z" fill="#05D09B"/>
<path d="M26.6028 12.8985C26.7421 12.7897 26.8846 12.8503 27.1694 12.9713C27.2497 13.0054 27.3278 13.0386 27.4033 13.0709C27.597 13.1537 27.6938 13.1953 27.7438 13.2841C27.7936 13.3729 27.7794 13.4722 27.7508 13.6708C27.7043 13.9932 27.6383 14.2993 27.555 14.5897C27.4395 14.9923 27.3818 15.1938 27.2369 15.1991C27.092 15.2045 27.0169 15.0007 26.8667 14.5933C26.7247 14.2081 26.5862 13.7802 26.5248 13.3935C26.484 13.1361 26.4635 13.0074 26.6028 12.8985Z" fill="#05D09B"/>
<path d="M19.1 12.0996C19.5418 12.0996 19.9 12.4578 19.9 12.8996C19.9 13.3414 19.5418 13.6996 19.1 13.6996C18.6582 13.6996 18.3 13.3414 18.3 12.8996C18.3 12.4578 18.6582 12.0996 19.1 12.0996Z" fill="#05D09B"/>
</g>
<defs>
<clipPath id="clip0_35_2160">
<rect width="32" height="32" fill="white"/>
</clipPath>
</defs>
</svg>
