<?xml version="1.0" encoding="UTF-8"?> <svg xmlns="http://www.w3.org/2000/svg" width="191" height="49" viewBox="0 0 191 49" fill="none"><g id="partners-logo-animoca 2"><path id="Vector" d="M64.3636 12.7425H65.9825C65.9308 13.3456 65.7581 13.8835 65.4644 14.3557C65.1708 14.8241 64.7587 15.1931 64.2276 15.4629C63.6966 15.7328 63.0512 15.8678 62.2915 15.8678C61.7085 15.8678 61.1841 15.7667 60.7177 15.5642C60.2598 15.3636 59.8511 15.0656 59.5199 14.6911C59.1873 14.3117 58.9326 13.854 58.7556 13.3184C58.5829 12.7825 58.4966 12.1837 58.4966 11.5215V10.7559C58.4966 10.0937 58.5852 9.49492 58.7622 8.95905C58.9436 8.42343 59.2026 7.96575 59.5393 7.58626C59.8715 7.20569 60.2854 6.90506 60.7501 6.70681C61.2251 6.50433 61.7582 6.40322 62.3495 6.40322C63.1009 6.40322 63.7353 6.53821 64.2534 6.80818C64.7714 7.07815 65.1731 7.45128 65.4581 7.9278C65.7471 8.40459 65.9241 8.95065 65.9888 9.56649H64.37C64.327 9.16994 64.232 8.83043 64.085 8.54772C63.9478 8.27052 63.7254 8.04447 63.4506 7.90259C63.1699 7.75079 62.8029 7.6749 62.3495 7.6749C61.9785 7.6749 61.6545 7.74239 61.3784 7.87737C61.1021 8.01236 60.8711 8.21051 60.6854 8.47208C60.4997 8.73339 60.3594 9.05609 60.2644 9.43991C60.1737 9.8194 60.1286 10.2539 60.1286 10.7432V11.5215C60.1286 11.9853 60.1696 12.4071 60.2516 12.7868C60.338 13.1622 60.4674 13.4847 60.6401 13.7546C60.8171 14.0246 61.0414 14.2335 61.3135 14.3812C61.5855 14.5289 61.9115 14.6028 62.2915 14.6028C62.7532 14.6028 63.1266 14.5309 63.4116 14.3875C63.7009 14.2442 63.919 14.0353 64.0657 13.761C64.2167 13.4826 64.316 13.1431 64.3636 12.7425ZM76.1706 10.8825V11.3886C76.1706 12.0846 76.0779 12.7089 75.8923 13.2613C75.7066 13.814 75.4409 14.2841 75.0956 14.6723C74.7576 15.0581 74.3372 15.3629 73.8654 15.5642C73.3861 15.7667 72.8551 15.8678 72.2723 15.8678C71.6939 15.8678 71.1649 15.7667 70.6859 15.5642C70.214 15.3597 69.792 15.0553 69.4491 14.672C69.0994 14.2841 68.8274 13.8137 68.633 13.261C68.443 12.7086 68.348 12.0844 68.348 11.3886V10.8827C68.348 10.1869 68.443 9.56471 68.633 9.01636C68.823 8.46368 69.0907 7.99352 69.4361 7.60536C69.7767 7.21962 70.1993 6.91488 70.6729 6.71343C71.1519 6.50688 71.6809 6.40347 72.2593 6.40347C72.8421 6.40347 73.3731 6.50688 73.8524 6.71343C74.3272 6.9128 74.7503 7.21795 75.0892 7.60562C75.4346 7.99352 75.7002 8.46393 75.8856 9.01636C76.0756 9.56471 76.1706 10.1869 76.1706 10.8827V10.8825ZM74.5452 11.3886V10.87C74.5452 10.3555 74.4935 9.90217 74.3898 9.50995C74.2905 9.11339 74.1415 8.7823 73.9431 8.51665C73.7488 8.24668 73.5091 8.0442 73.2244 7.90921C72.9394 7.7699 72.6177 7.70037 72.2593 7.70037C71.901 7.70037 71.5816 7.7699 71.3009 7.90921C71.0205 8.0442 70.7809 8.24668 70.5822 8.51665C70.3879 8.7823 70.2391 9.11339 70.1355 9.50995C70.0318 9.90217 69.9801 10.3555 69.9801 10.87V11.3888C69.9801 11.9033 70.0318 12.3589 70.1355 12.7555C70.2391 13.1518 70.3902 13.4872 70.5886 13.7615C70.7916 14.0315 71.0333 14.2358 71.3139 14.3751C71.5946 14.5101 71.914 14.5775 72.2723 14.5775C72.635 14.5775 72.9567 14.5101 73.2371 14.3751C73.5178 14.2358 73.7551 14.0312 73.9495 13.7613C74.1438 13.4872 74.2905 13.1518 74.3898 12.7552C74.4935 12.3589 74.5452 11.903 74.5452 11.3886ZM80.725 6.5298V15.7412H79.0996V6.53006L80.725 6.5298ZM91.4183 6.5298V15.7412H89.7931L85.5644 9.14268V15.7412H83.939V6.53006H85.5644L89.8061 13.1413V6.5298H91.4183ZM98.2328 6.5298V15.7412H96.6203V6.53006L98.2328 6.5298ZM101.192 6.5298V7.79511H93.6868V6.5298H101.192ZM109.8 14.4823V15.7412H104.795V14.4823H109.8ZM105.254 6.53006V15.7415H103.629V6.53006H105.254ZM109.146 10.3767V11.6165H104.795V10.3767H109.146ZM109.768 6.53006V7.79536H104.795V6.53006H109.768ZM118.227 14.4823V15.7412H113.493V14.4823H118.227ZM113.947 6.53006V15.7415H112.321V6.53006H113.947ZM126.848 14.4823V15.7412H121.843V14.4823H126.848ZM122.302 6.53006V15.7415H120.677V6.53006H122.302ZM126.194 10.3767V11.6165H121.843V10.3767H126.194ZM126.816 6.53006V7.79536H121.843V6.53006H126.816ZM136.609 11.0343V14.5518C136.475 14.725 136.266 14.9148 135.981 15.1213C135.7 15.3238 135.327 15.4988 134.861 15.6465C134.394 15.7942 133.814 15.8681 133.119 15.8681C132.527 15.8681 131.986 15.7708 131.493 15.5767C131.01 15.3844 130.574 15.0886 130.218 14.71C129.864 14.3305 129.589 13.8687 129.395 13.3245C129.201 12.7764 129.104 12.1521 129.104 11.452V10.8127C129.104 10.1169 129.192 9.49696 129.369 8.95294C129.551 8.40459 129.81 7.94054 130.146 7.56105C130.48 7.18359 130.897 6.88895 131.364 6.70045C131.843 6.5023 132.385 6.40322 132.989 6.40322C133.762 6.40322 134.401 6.5298 134.906 6.78271C135.415 7.03154 135.808 7.37742 136.085 7.82032C136.361 8.26323 136.536 8.76931 136.609 9.3388H135.016C134.964 9.01814 134.863 8.73136 134.712 8.47845C134.565 8.22528 134.353 8.02713 134.077 7.88374C133.805 7.73602 133.451 7.66216 133.015 7.66216C132.64 7.66216 132.309 7.73169 132.024 7.87101C131.74 8.01007 131.502 8.21484 131.312 8.48482C131.126 8.75479 130.986 9.0836 130.891 9.47149C130.796 9.85964 130.749 10.3025 130.749 10.8002V11.452C130.749 11.958 130.803 12.4071 130.911 12.7993C131.023 13.1915 131.183 13.5226 131.39 13.7926C131.593 14.0563 131.858 14.2669 132.16 14.4064C132.463 14.5414 132.804 14.6089 133.183 14.6089C133.555 14.6089 133.859 14.5793 134.096 14.5202C134.334 14.4571 134.522 14.3832 134.66 14.2987C134.802 14.2103 134.912 14.126 134.99 14.0458V12.2173H133.028V11.0343H136.609ZM139.603 6.5298H142.938C143.655 6.5298 144.265 6.63524 144.77 6.84613C145.276 7.05701 145.662 7.36901 145.929 7.78238C146.201 8.19141 146.337 8.69774 146.337 9.30085C146.337 9.76057 146.251 10.1655 146.078 10.5157C145.907 10.8641 145.657 11.1674 145.347 11.4013C145.032 11.6374 144.656 11.821 144.22 11.9517L143.728 12.1857H140.73L140.717 10.9268H142.964C143.352 10.9268 143.676 10.8593 143.935 10.7243C144.194 10.5893 144.388 10.406 144.518 10.1739C144.652 9.93758 144.719 9.67219 144.719 9.37675C144.719 9.05609 144.654 8.77771 144.524 8.54161C144.399 8.30118 144.205 8.1178 143.942 7.99122C143.678 7.86031 143.344 7.79511 142.938 7.79511H141.228V15.7415H139.603V6.5298ZM144.984 15.7412L142.769 11.6038L144.473 11.5974L146.719 15.659V15.7412H144.984ZM152.822 7.75716L150.005 15.7412H148.302L151.85 6.53006H152.938L152.822 7.75716ZM155.179 15.7412L152.356 7.75716L152.232 6.52955H153.327L156.888 15.7412H155.179ZM155.043 12.3251V13.584H149.914V12.3251H155.043ZM162.718 12.306H160.264V11.047H162.718C163.146 11.047 163.491 10.9795 163.755 10.8445C164.018 10.7095 164.21 10.5239 164.331 10.2878C164.456 10.0473 164.519 9.7733 164.519 9.46512C164.519 9.17427 164.456 8.90226 164.331 8.64909C164.21 8.39185 164.018 8.1853 163.755 8.02917C163.491 7.87305 163.146 7.79486 162.718 7.79486H160.763V15.7412H159.137V6.53006H162.718C163.448 6.53006 164.068 6.65638 164.577 6.90955C165.091 7.15838 165.481 7.50425 165.749 7.94716C166.017 8.38574 166.151 8.88774 166.151 9.4529C166.151 10.0476 166.017 10.558 165.749 10.9839C165.481 11.4099 165.091 11.7367 164.577 11.9644C164.068 12.1924 163.448 12.306 162.718 12.306ZM175.031 10.3764V11.6354H170.025V10.3764H175.031ZM170.426 6.5298V15.7412H168.801V6.53006L170.426 6.5298ZM176.281 6.5298V15.7412H174.661V6.53006L176.281 6.5298ZM28.3966 35.7241L20.2337 39.2648V38.908C18.6559 39.3107 16.9133 39.5394 15.2621 39.6125C7.58523 39.5394 1.48587 35.5321 1.41252 30.7561V28.9811C3.93473 32.6408 9.0711 35.0927 15.2624 35.0013C17.3534 35.0927 19.4997 34.7542 21.2976 34.2968L22.0038 32.5219C19.8667 33.1532 17.5371 33.6015 15.2621 33.5832C7.58523 33.6015 1.48587 29.585 1.41252 24.7268V23.3086C3.93473 26.6937 9.06193 29.1459 15.2624 28.972C18.0505 29.1367 20.7747 28.5512 23.0769 27.5538L23.4344 25.7789C21.1967 26.9591 18.2892 27.6453 15.2716 27.5538C7.5944 27.6453 1.49504 23.638 1.42143 18.6974V17.2793C3.9439 20.7378 9.08027 23.1897 15.2716 23.2995C18.7934 23.1899 22.1228 22.2654 24.8561 20.82L25.214 18.6974C22.7373 20.5274 19.1146 21.7168 15.2713 21.8813C7.59465 21.7076 1.49504 17.7003 1.42194 12.6773C1.48613 7.92882 7.58548 3.9215 15.2627 3.85732C19.8395 3.9215 24.0954 5.52275 26.6267 8.11195L26.8743 8.52353H28.663L28.3969 8.11195C25.8838 4.69016 20.8483 2.43945 15.2624 2.43945C6.7692 2.43945 0 7.11457 0 12.7048V31.1221C0.293405 36.5842 6.91564 41.0398 15.2624 41.0398C20.7747 41.0398 25.7369 38.8713 28.3966 35.7241Z" fill="white"></path><path id="Vector_2" d="M30.0942 33.5269L28.6634 40.6722L40.4862 22.8038L30.8097 27.0949L35.1114 17.0855H44.7879L46.5766 9.58329H18.6293L16.8408 17.0857H26.5173L21.8578 37.0948L30.1034 33.5177L30.0942 33.5269ZM25.0773 48.1838L27.939 36.0335L19.7023 39.6109L24.7197 18.5222H15.043L17.5563 8.15625H48.365L45.8612 18.5222H35.8268L33.6805 24.2403L44.7879 19.5927L25.0773 48.1838Z" fill="#FABF2C"></path><path id="Vector_3" d="M30.0942 33.5269L28.6634 40.6722L40.4862 22.8038L30.8097 27.0949L35.1114 17.0855H44.7879L46.5766 9.58329H18.6293L16.8408 17.0857H26.5173L21.8578 37.0948L30.1034 33.5177L30.0942 33.5269ZM25.0773 48.1838L27.939 36.0335L19.7023 39.6109L24.7197 18.5222H15.043L17.5563 8.15625H48.365L45.8612 18.5222H35.8268L33.6805 24.2403L44.7879 19.5927L25.0773 48.1838Z" fill="#FABF2C"></path><path id="Vector_4" fill-rule="evenodd" clip-rule="evenodd" d="M190.055 0.0842391L177.152 19.5569L177.151 19.5636L172.865 26.8144L168.1 20.1196H166.716L165.132 24.403C165.116 23.5711 164.886 22.8195 164.44 22.1479C163.977 21.4524 163.335 20.9088 162.512 20.5182C161.697 20.1272 160.781 19.9319 159.763 19.9319C158.775 19.9319 157.867 20.1313 157.036 20.5299C156.214 20.9208 155.559 21.4641 155.074 22.1596C154.588 22.8552 154.345 23.633 154.345 24.4929C154.345 25.3448 154.588 26.1188 155.074 26.8144C155.559 27.5023 156.218 28.0456 157.048 28.4442C157.878 28.8349 158.787 29.0305 159.774 29.0305C160.793 29.0305 161.709 28.8349 162.524 28.4442C163.135 28.1452 163.647 27.7649 164.06 27.3034L163.421 29.0305H165.407L168.1 22.6285L172.447 29.0305H174.049L176.769 23.9705L178.227 21.3635L190.055 0.0839844V0.0842391ZM68.5076 24.4694C68.5076 23.6017 68.7465 22.8201 69.2243 22.1245C69.7102 21.4287 70.3681 20.8854 71.1987 20.4945C72.0368 20.0961 72.9652 19.8967 73.9837 19.8967C75.2605 19.8967 76.3613 20.2054 77.2858 20.823C78.218 21.4327 78.8603 22.2885 79.2128 23.3908L77.1447 23.4025C76.9959 23.0037 76.7413 22.6639 76.3809 22.3825C76.033 22.0958 75.6344 21.8771 75.2057 21.7376C74.7748 21.5889 74.3713 21.5148 73.9954 21.5148C73.4313 21.5148 72.8829 21.6319 72.3501 21.8665C71.8176 22.0932 71.3787 22.4332 71.0341 22.8865C70.6972 23.3322 70.5288 23.8597 70.5288 24.4694C70.5288 25.0868 70.6893 25.6184 71.0107 26.0641C71.3319 26.5016 71.7549 26.8378 72.2798 27.0724C72.8124 27.2991 73.3844 27.4124 73.9954 27.4124C74.5985 27.4124 75.1902 27.2522 75.7699 26.9315C76.3574 26.6111 76.8001 26.154 77.0978 25.5598H79.2128C78.8369 26.6697 78.1866 27.5257 77.2621 28.1276C76.3457 28.7294 75.2528 29.0305 73.9837 29.0305C72.9731 29.0305 72.0486 28.831 71.2104 28.4324C70.3722 28.0338 69.7102 27.4865 69.2243 26.791C68.7465 26.0951 68.5076 25.3214 68.5076 24.4694ZM70.7939 29.0305H68.5076L67.0821 26.9825H60.4084L59.8226 27.769L59.6481 27.8367L59.8496 27.7588L43.8438 48.3656L56.5768 29.0287L56.5722 29.0305L62.8679 20.1196H64.5056L70.7939 29.0305ZM63.6733 21.5889L61.267 25.3489H66.2533L63.6733 21.5889ZM80.7231 22.1245C80.2453 22.8201 80.0064 23.6017 80.0064 24.4694C80.0064 25.3214 80.2453 26.0951 80.7231 26.791C81.2088 27.4865 81.8708 28.0338 82.7092 28.4324C83.5474 28.831 84.4717 29.0305 85.4823 29.0305C86.7514 29.0305 87.8443 28.7294 88.7609 28.1276C89.6855 27.5257 90.3357 26.6697 90.7116 25.5598H88.5964C88.2987 26.154 87.856 26.6111 87.2684 26.9315C86.6888 27.2522 86.0974 27.4124 85.494 27.4124C84.883 27.4124 84.3112 27.2991 83.7784 27.0724C83.2535 26.8378 82.8304 26.5016 82.5093 26.0641C82.1881 25.6184 82.0274 25.0868 82.0274 24.4694C82.0274 23.8597 82.196 23.3322 82.5327 22.8865C82.8775 22.4332 83.3161 22.0932 83.8489 21.8665C84.3817 21.6322 84.9301 21.5148 85.494 21.5148C85.8702 21.5148 86.2736 21.5889 86.7045 21.7376C87.1331 21.8772 87.5317 22.0959 87.8797 22.3825C88.2401 22.6637 88.4945 23.0039 88.6435 23.4025L90.7116 23.3908C90.3591 22.2885 89.7168 21.4327 88.7844 20.823C87.8601 20.2054 86.7593 19.8967 85.4823 19.8967C84.464 19.8967 83.5357 20.0961 82.6972 20.4947C81.8669 20.8854 81.2088 21.4287 80.7231 22.1245ZM99.6485 25.0909H93.7259V27.2364L100.636 27.2013V28.7959H91.74V20.1196H100.636L100.647 21.7139H93.7259V23.508H99.6485V25.0909ZM103.721 27.1661V20.1196H101.735V28.7959H109.691V27.1661H103.721ZM118.687 25.0909H112.764V27.2364L119.674 27.2013V28.7959H110.778V20.1196H119.674L119.686 21.7139H112.764V23.508H118.687V25.0909ZM125.838 25.9701L128.248 28.7725H130.692L128.165 25.8412C128.933 25.6772 129.532 25.3527 129.963 24.8683C130.402 24.3834 130.621 23.7698 130.621 23.0274V22.9803C130.621 22.4097 130.465 21.9095 130.151 21.4796C129.846 21.0418 129.411 20.7018 128.847 20.4596C128.291 20.2171 127.648 20.0961 126.92 20.0961H120.774V28.7725H122.724V25.9701H125.838ZM128.365 22.1011C128.537 22.3043 128.623 22.6285 128.623 23.074C128.623 23.4963 128.537 23.8049 128.365 24.0006C128.2 24.188 127.989 24.3052 127.731 24.352C127.472 24.3912 127.108 24.4106 126.638 24.4106H122.724V21.7027C123.915 21.7027 125.039 21.691 126.097 21.6673C126.277 21.6588 126.457 21.6549 126.638 21.6556C127.108 21.6556 127.472 21.679 127.731 21.7262C127.981 21.7684 128.207 21.9018 128.365 22.1011ZM142.478 28.7959H140.41L139.411 26.955H133.923L132.924 28.7959H130.856L135.568 20.1196H137.766L142.478 28.7959ZM136.673 21.9016L134.793 25.3489H138.541L136.673 21.9016ZM150.287 20.1196V21.8079H146.385V28.7959H144.399V21.8079H140.439V20.1196H150.287ZM153.366 28.7959H151.38V20.1196H153.366V28.7959ZM161.384 27.0724C160.875 27.2991 160.334 27.4124 159.763 27.4124C159.167 27.4124 158.615 27.2991 158.106 27.0724C157.596 26.8378 157.185 26.5016 156.872 26.0641C156.566 25.6184 156.413 25.0868 156.413 24.4694C156.413 23.8676 156.562 23.3478 156.86 22.91C157.158 22.4724 157.557 22.1362 158.059 21.9016C158.568 21.6673 159.128 21.5502 159.739 21.5502C160.311 21.5502 160.851 21.6673 161.361 21.9016C161.878 22.136 162.293 22.4762 162.606 22.9217C162.927 23.3674 163.088 23.891 163.088 24.4929C163.088 25.1026 162.931 25.6301 162.618 26.0758C162.305 26.5133 161.893 26.8457 161.384 27.0724Z" fill="#FABF2C"></path></g></svg> 