<svg width="145" height="32" viewBox="0 0 145 32" fill="none" xmlns="http://www.w3.org/2000/svg">
<g clip-path="url(#clip0_22_325)">
<path d="M26.4264 0.361384V7.50444C22.2613 11.0905 17.8589 14.7187 13.7321 18.3364C13.6174 15.9901 13.7031 13.6399 13.6767 11.2923C13.6965 9.99449 13.6095 8.69143 13.7704 7.40157C17.8194 4.97747 21.8433 2.51248 25.8724 0.0540852C26.1112 -0.0923105 26.4211 0.0751873 26.4277 0.356109C26.4277 0.358747 26.4277 0.360066 26.4277 0.362703L26.4264 0.361384Z" fill="#ECFDF5" fill-opacity="0.5"/>
<path d="M26.4264 24.2608V25.1999C26.4211 25.8606 26.4237 26.5214 26.4264 27.1821V31.6347C26.4264 31.9195 26.1138 32.095 25.8711 31.9446C17.3327 26.6915 8.74017 21.5202 0.175359 16.3066C-0.0580825 16.1642 -0.0580825 15.8252 0.176678 15.6828C3.90647 13.4328 7.60593 11.1314 11.3516 8.90112C11.3489 13.0952 11.3568 17.2866 11.3463 21.478C12.3869 21.4041 13.649 21.7879 14.4087 20.8462C15.7474 19.6685 17.1006 18.5131 18.459 17.3565C21.1007 19.6751 23.7675 21.966 26.429 24.2608H26.4264Z" fill="#ECFDF5" fill-opacity="0.5"/>
<path d="M26.4369 24.2675C26.4316 24.5774 26.4303 24.89 26.4277 25.1999V24.2609C26.4277 24.2609 26.4343 24.2661 26.4369 24.2675Z" fill="#ECFDF5" fill-opacity="0.5"/>
<path d="M26.4264 10.4298V20.7501C26.4237 20.8899 26.4211 21.027 26.4198 21.1655C24.3597 19.3745 22.2983 17.5847 20.221 15.8135C22.2732 13.9987 24.3768 12.2446 26.4264 10.4298Z" fill="#ECFDF5" fill-opacity="0.5"/>
<path d="M37.4193 17.3974H33.311V5.26501H36.4895C37.4905 5.26501 38.2726 5.39954 38.8345 5.66859C39.3963 5.93764 39.8249 6.30825 40.1204 6.78041C40.4158 7.25257 40.5635 7.79858 40.5635 8.41714C40.5635 9.60941 39.9476 10.464 38.7131 10.9784C39.5994 11.1459 40.3037 11.5112 40.8273 12.0731C41.3509 12.6349 41.6133 13.3062 41.6133 14.0883C41.6133 14.7082 41.4538 15.2608 41.1359 15.7475C40.8181 16.2341 40.3499 16.6298 39.7339 16.9371C39.1167 17.2444 38.3452 17.3974 37.4193 17.3974ZM36.5422 6.81074H35.048V10.4588H36.2033C37.1291 10.4588 37.7886 10.282 38.179 9.92858C38.5694 9.57512 38.7646 9.11746 38.7646 8.55694C38.7646 7.39369 38.0233 6.81074 36.5409 6.81074H36.5422ZM36.6728 12.0045H35.0493V15.8517H36.7599C37.7095 15.8517 38.3531 15.7778 38.692 15.6301C39.031 15.4824 39.3027 15.2529 39.5084 14.9403C39.7142 14.6277 39.817 14.2914 39.817 13.9327C39.817 13.574 39.7089 13.2231 39.4913 12.9172C39.2736 12.6099 38.9664 12.3817 38.5667 12.2313C38.1671 12.081 37.5367 12.0058 36.6741 12.0058L36.6728 12.0045Z" fill="#ECFDF5" fill-opacity="0.5"/>
<path d="M43.3767 17.3974V5.26501H46.4167C47.6446 5.26501 48.6179 5.56836 49.3393 6.17636C50.0608 6.78437 50.4208 7.60603 50.4208 8.64267C50.4208 9.34959 50.2441 9.96023 49.8906 10.4746C49.5372 10.9903 49.0307 11.3754 48.3713 11.6299C48.759 11.8845 49.1389 12.2327 49.5095 12.6718C49.8801 13.1124 50.401 13.8786 51.0723 14.9733C51.4944 15.6618 51.8333 16.1801 52.0879 16.5283L52.7302 17.3961H50.6635L50.1346 16.5968C50.1175 16.5678 50.0819 16.519 50.0304 16.4491L49.6928 15.9717L49.1547 15.0854L48.5731 14.1384C48.2143 13.6399 47.8859 13.2442 47.5879 12.9488C47.2898 12.6547 47.0194 12.441 46.7794 12.3118C46.5394 12.1812 46.1345 12.1166 45.566 12.1166H45.1136V17.3961H43.3767V17.3974ZM45.6346 6.74084H45.1136V10.5709H45.7731C46.6528 10.5709 47.2568 10.4957 47.5839 10.3453C47.911 10.195 48.1655 9.96814 48.3475 9.66348C48.5295 9.36014 48.6205 9.01327 48.6205 8.62552C48.6205 8.23777 48.519 7.8975 48.3172 7.58756C48.1141 7.27763 47.8292 7.05869 47.4612 6.93208C47.0933 6.80415 46.484 6.74084 45.6333 6.74084H45.6346Z" fill="#ECFDF5" fill-opacity="0.5"/>
<path d="M57.9411 5.19507H59.1624L64.6028 17.396H62.8249L61.208 13.8008H56.0314L54.516 17.396H52.7315L57.9424 5.19507H57.9411ZM60.4931 12.2564L58.5359 7.86185L56.7211 12.2564H60.4931Z" fill="#ECFDF5" fill-opacity="0.5"/>
<path d="M75.5692 5.26501H77.2192V17.3974H75.7249L67.6138 8.05445V17.3974H65.981V5.26501H67.3882L75.5692 14.6884V5.26501Z" fill="#ECFDF5" fill-opacity="0.5"/>
<path d="M79.8332 17.3803V5.26501H83.923C85.5729 5.26501 86.8786 5.51296 87.8401 6.00754C88.8016 6.50212 89.5652 7.23015 90.1323 8.19161C90.6994 9.15307 90.983 10.2003 90.983 11.3358C90.983 12.1469 90.826 12.9224 90.5135 13.6636C90.2009 14.4049 89.7551 15.0564 89.1761 15.6182C88.5853 16.1972 87.8994 16.6338 87.1173 16.9292C86.6597 17.1086 86.2403 17.2286 85.8578 17.2892C85.4753 17.3499 84.746 17.3803 83.6698 17.3803H79.8318H79.8332ZM83.741 6.81074H81.5701V15.8332H83.7938C84.6616 15.8332 85.3369 15.7739 85.8169 15.6552C86.297 15.5365 86.6979 15.3861 87.0197 15.2041C87.3416 15.0221 87.6343 14.7979 87.9008 14.5315C88.758 13.6636 89.1867 12.5663 89.1867 11.2395C89.1867 9.91275 88.7462 8.87479 87.8665 8.05181C87.542 7.74451 87.1701 7.4926 86.7507 7.29609C86.3313 7.09958 85.933 6.96901 85.5571 6.9057C85.1812 6.8424 84.5759 6.81074 83.7423 6.81074H83.741Z" fill="#ECFDF5" fill-opacity="0.5"/>
<path d="M107.737 5.26501H109.387V17.3974H107.892L99.7812 8.05445V17.3974H98.1485V5.26501H99.5557L107.737 14.6884V5.26501Z" fill="#ECFDF5" fill-opacity="0.5"/>
<path d="M115.857 5.19507H117.078L122.519 17.396H120.741L119.124 13.8008H113.947L112.432 17.396H110.648L115.858 5.19507H115.857ZM118.409 12.2564L116.452 7.86185L114.637 12.2564H118.409Z" fill="#ECFDF5" fill-opacity="0.5"/>
<path d="M133.494 5.26501H135.118V17.3974H133.372V7.95685L129.642 12.6468H129.32L125.547 7.95685V17.3961H123.81V5.26501H125.455L129.486 10.2477L133.494 5.26501Z" fill="#ECFDF5" fill-opacity="0.5"/>
<path d="M137.732 5.26501H144.61V6.81074H139.469V10.5102H144.436V12.0652H139.469V15.8345H144.775V17.3803H137.732V5.26501Z" fill="#ECFDF5" fill-opacity="0.5"/>
<path d="M35.4898 24.0617L34.7934 23.6383C34.3556 23.3719 34.0456 23.1082 33.8597 22.851C33.675 22.5925 33.5827 22.2957 33.5827 21.9594C33.5827 21.4556 33.7581 21.0454 34.1076 20.7302C34.4571 20.415 34.9122 20.2581 35.4714 20.2581C36.0306 20.2581 36.4974 20.4084 36.9432 20.7091V21.7497C36.4816 21.3052 35.9844 21.0837 35.4529 21.0837C35.1535 21.0837 34.9069 21.1536 34.7143 21.2921C34.5218 21.4305 34.4255 21.6086 34.4255 21.8236C34.4255 22.0148 34.4967 22.1955 34.6378 22.363C34.7789 22.5305 35.0084 22.7059 35.3223 22.8905L36.0226 23.3047C36.8034 23.7716 37.1951 24.3651 37.1951 25.0865C37.1951 25.5995 37.0237 26.0176 36.6794 26.3381C36.3352 26.6586 35.8881 26.8195 35.3381 26.8195C34.7051 26.8195 34.1287 26.6256 33.6091 26.2365V25.072C34.105 25.6998 34.6774 26.0137 35.3289 26.0137C35.6164 26.0137 35.8551 25.9332 36.0464 25.7736C36.2376 25.614 36.3326 25.4136 36.3326 25.1722C36.3326 24.7818 36.0517 24.4125 35.4885 24.063L35.4898 24.0617Z" fill="#ECFDF5" fill-opacity="0.5"/>
<path d="M43.2211 20.3398H44.1377V25.9121H47.0221V26.747H43.2211V20.3412V20.3398Z" fill="#ECFDF5" fill-opacity="0.5"/>
<path d="M55.9839 20.2474C56.9731 20.2474 57.7974 20.5613 58.4568 21.1878C59.1149 21.8143 59.4446 22.6003 59.4446 23.5446C59.4446 24.489 59.1123 25.2711 58.4476 25.8909C57.7829 26.5095 56.9454 26.8194 55.9338 26.8194C54.9222 26.8194 54.1638 26.5095 53.5216 25.8909C52.8779 25.2724 52.5574 24.4956 52.5574 23.5631C52.5574 22.6307 52.8819 21.8143 53.5295 21.1878C54.177 20.5613 54.9961 20.2474 55.9852 20.2474H55.9839ZM56.0195 21.1192C55.2862 21.1192 54.6835 21.3487 54.2126 21.8077C53.7405 22.2666 53.5044 22.8522 53.5044 23.5644C53.5044 24.2766 53.7405 24.8305 54.214 25.2882C54.6874 25.7472 55.2796 25.9767 55.9918 25.9767C56.704 25.9767 57.3028 25.7432 57.7815 25.275C58.259 24.8068 58.499 24.2252 58.499 23.5275C58.499 22.8298 58.2603 22.2772 57.7815 21.8143C57.3041 21.3513 56.7159 21.1192 56.0195 21.1192Z" fill="#ECFDF5" fill-opacity="0.5"/>
<path d="M69.0487 23.5908H71.1998V26.3051C70.4111 26.648 69.629 26.8181 68.8522 26.8181C67.7918 26.8181 66.9438 26.5082 66.3094 25.8897C65.675 25.2711 65.3585 24.5075 65.3585 23.5988C65.3585 22.6426 65.6869 21.846 66.3437 21.2103C67.0005 20.5746 67.8248 20.2567 68.8153 20.2567C69.1753 20.2567 69.5182 20.2963 69.8427 20.3741C70.1671 20.4519 70.576 20.5957 71.0719 20.8027V21.7378C70.3069 21.2947 69.5499 21.0731 68.7968 21.0731C68.0965 21.0731 67.5069 21.3118 67.0269 21.7879C66.5468 22.2654 66.3068 22.8496 66.3068 23.5447C66.3068 24.2397 66.5468 24.8675 67.0269 25.3291C67.5069 25.7907 68.1242 26.0215 68.8799 26.0215C69.2466 26.0215 69.6857 25.9371 70.1961 25.7696L70.2832 25.7419V24.4072H69.05V23.5908H69.0487Z" fill="#ECFDF5" fill-opacity="0.5"/>
<path d="M79.5998 20.303H80.2447L83.1172 26.7457H82.1782L81.3249 24.8478H78.5922L77.7916 26.7457H76.8486L79.5998 20.303ZM80.9464 24.0315L79.9124 21.7115L78.9535 24.0315H80.945H80.9464Z" fill="#ECFDF5" fill-opacity="0.5"/>
<path d="M93.9228 20.3398H94.7946V26.7456H94.0059L89.7222 21.8117V26.7456H88.8596V20.3398H89.6022L93.9215 25.316V20.3398H93.9228Z" fill="#ECFDF5" fill-opacity="0.5"/>
<path d="M113.322 20.3398H114.239V26.7456H113.322V23.9575H109.723V26.7456H108.806V20.3398H109.723V23.1095H113.322V20.3398Z" fill="#ECFDF5" fill-opacity="0.5"/>
<path d="M120.667 20.3398H124.299V21.1562H121.585V23.1095H124.208V23.9298H121.585V25.92H124.386V26.7364H120.667V20.3398Z" fill="#ECFDF5" fill-opacity="0.5"/>
<path d="M130.406 26.7456V20.3398H132.011C132.658 20.3398 133.173 20.5007 133.554 20.8212C133.935 21.1417 134.125 21.577 134.125 22.123C134.125 22.4962 134.031 22.818 133.845 23.091C133.659 23.3627 133.392 23.5658 133.043 23.7004C133.248 23.8349 133.448 24.0182 133.644 24.2503C133.839 24.4824 134.114 24.8873 134.469 25.465C134.692 25.829 134.871 26.102 135.006 26.2854L135.345 26.7443H134.253L133.973 26.3223C133.964 26.3065 133.946 26.2814 133.918 26.2445L133.74 25.9926L133.456 25.5244L133.149 25.0245C132.959 24.7621 132.786 24.5523 132.628 24.3967C132.471 24.2411 132.329 24.129 132.201 24.0604C132.074 23.9918 131.86 23.9575 131.56 23.9575H131.321V26.7456H130.404H130.406ZM131.598 21.1193H131.322V23.1411H131.67C132.135 23.1411 132.454 23.1016 132.627 23.0224C132.799 22.9433 132.934 22.8233 133.03 22.6624C133.127 22.5015 133.175 22.3195 133.175 22.1151C133.175 21.9106 133.121 21.7313 133.014 21.5677C132.908 21.4042 132.757 21.2881 132.562 21.2222C132.368 21.1549 132.046 21.1206 131.597 21.1206L131.598 21.1193Z" fill="#ECFDF5" fill-opacity="0.5"/>
<path d="M141.066 20.3398H144.698V21.1562H141.984V23.1095H144.607V23.9298H141.984V25.92H144.785V26.7364H141.066V20.3398Z" fill="#ECFDF5" fill-opacity="0.5"/>
</g>
<defs>
<clipPath id="clip0_22_325">
<rect width="144.785" height="32" fill="white"/>
</clipPath>
</defs>
</svg>
